<svg width="20" height="20" viewBox="0 0 20 20" fill="none" xmlns="http://www.w3.org/2000/svg">
<path d="M11.1666 10.5917C11.2447 10.5142 11.3067 10.4221 11.349 10.3205C11.3913 10.219 11.4131 10.11 11.4131 10C11.4131 9.89001 11.3913 9.78109 11.349 9.67954C11.3067 9.57799 11.2447 9.48582 11.1666 9.40835L7.34162 5.59168C7.26351 5.51421 7.20152 5.42204 7.15921 5.32049C7.1169 5.21894 7.09512 5.11002 7.09512 5.00001C7.09512 4.89 7.1169 4.78108 7.15921 4.67953C7.20152 4.57798 7.26351 4.48581 7.34162 4.40834C7.49776 4.25313 7.70897 4.16602 7.92912 4.16602C8.14928 4.16602 8.36049 4.25313 8.51662 4.40834L12.3416 8.23335C12.8098 8.7021 13.0728 9.33752 13.0728 10C13.0728 10.6625 12.8098 11.2979 12.3416 11.7667L8.51662 15.5917C8.3614 15.7457 8.1519 15.8324 7.93329 15.8334C7.82361 15.834 7.7149 15.813 7.61336 15.7715C7.51183 15.73 7.41949 15.6689 7.34162 15.5917C7.26351 15.5142 7.20152 15.4221 7.15921 15.3205C7.1169 15.219 7.09512 15.11 7.09512 15C7.09512 14.89 7.1169 14.7811 7.15921 14.6795C7.20152 14.578 7.26351 14.4858 7.34162 14.4084L11.1666 10.5917Z" fill="#242424"/>
</svg>
